<svg xmlns="http://www.w3.org/2000/svg" viewBox="0 0 73.19 100.77"><defs><style>.cls-1{fill:#24d6ff;}.cls-2{fill:#fff;}.cls-3{fill:#4a30c1;}</style></defs><title>mobile</title><g id="Camada_2" data-name="Camada 2"><g id="Camada_1-2" data-name="Camada 1"><rect class="cls-1" x="14.43" y="3.26" width="44.66" height="74.66" rx="2.55"/><polygon class="cls-2" points="45 80.18 44.64 68.54 54.09 56.23 36.76 55.2 33.63 49.03 36.76 42.89 42.27 41.4 60.34 41.4 65.91 42.86 70.78 48.83 70.27 74.72 61.36 86.83 59.09 88.54 45 80.18"/><path class="cls-3" d="M72.93,76.35a1.6,1.6,0,0,0,.1-.23,1.72,1.72,0,0,0,.07-.21,1.89,1.89,0,0,0,.05-.23l0-.25c0-.05,0-.09,0-.13V48.83a2.42,2.42,0,0,0-.59-1.58c-1.4-1.61-6.2-7-9.09-8.07a2.78,2.78,0,0,0-.77-.17V7.34A7.34,7.34,0,0,0,55.4,0h-37A7.34,7.34,0,0,0,11,7.34V28.11a8.59,8.59,0,0,0-8.56,8.58,8.47,8.47,0,0,0,1.65,5,8.55,8.55,0,0,0-.86,14A8.56,8.56,0,0,0,9.81,69.84H11V74a7.35,7.35,0,0,0,6.52,7.29l4.66,7.07v8.13a2.41,2.41,0,0,0,2.05,2.38c.54.08,12.67,1.9,18.06,1.9l.86,0c4.54-.22,17-3.37,17.58-3.5a2.41,2.41,0,0,0,1.81-2.33V88.53l10-11.67.07-.1a1.7,1.7,0,0,0,.15-.22A1.14,1.14,0,0,0,72.93,76.35ZM4.81,49a3.77,3.77,0,0,1,3.77-3.77H11v7.43H9.81a8.55,8.55,0,0,0-1.25.1A3.77,3.77,0,0,1,4.81,49ZM11,32.92v7.53a3.77,3.77,0,0,1,0-7.53ZM9.81,65A3.76,3.76,0,0,1,9,57.61H11V65Zm48.54,21a2.39,2.39,0,0,0-.59,1.57V93c-4.3,1-11.91,2.76-14.81,2.9-3.09.16-11.25-.87-15.93-1.53V87.64a2.46,2.46,0,0,0-.39-1.32l-5.41-8.2a2.42,2.42,0,0,0-1.2-.93,2.43,2.43,0,0,0-1.65-.66A2.53,2.53,0,0,1,15.84,74V7.34a2.53,2.53,0,0,1,2.53-2.53h37a2.54,2.54,0,0,1,2.54,2.53V39H41a9.19,9.19,0,0,0-9.18,9.18v1.25A9.19,9.19,0,0,0,41,58.64h7.79l-2.35,2.23c-2.71,2.09-4.18,6.48-4.18,9.61v8.33a2.41,2.41,0,0,0,4.81,0V70.48c0-2.16,1.12-4.94,2.34-5.82a2.41,2.41,0,0,0,.24-.21L56.43,58h0a2.75,2.75,0,0,0,.22-.26l.09-.11a1.87,1.87,0,0,0,.16-.28s.05-.08.07-.13.05-.17.08-.25l.06-.19c0-.07,0-.14,0-.21a2.48,2.48,0,0,0,0-.27v0a1.1,1.1,0,0,0,0-.18,2.28,2.28,0,0,0,0-.26l-.06-.23c0-.07,0-.14-.07-.22a2.53,2.53,0,0,0-.12-.23,1.62,1.62,0,0,0-.1-.18,2.15,2.15,0,0,0-.18-.24l-.09-.11,0,0a1.64,1.64,0,0,0-.25-.21l-.11-.1-.25-.14L55.72,54,55.5,54l-.23-.08-.17,0-.3,0H41a4.39,4.39,0,0,1-4.38-4.38V48.2A4.38,4.38,0,0,1,41,43.83H62.09a39,39,0,0,1,6.29,5.92V74.41Z"/><path class="cls-2" d="M39.06,16.37H34.13a2.4,2.4,0,1,1,0-4.8h4.93a2.4,2.4,0,1,1,0,4.8Z"/></g></g></svg>